<?xml version="1.0" encoding="UTF-8"?>
<svg id="Layer_2" data-name="Layer 2" xmlns="http://www.w3.org/2000/svg" viewBox="0 0 430.5 318">
  <defs>
    <style>
      .cls-1 {
        fill: #245b49;
      }

      .cls-2 {
        fill: #eab938;
      }

      .cls-3 {
        fill: #003149;
      }

      .cls-4 {
        fill: #f4eae8;
      }
    </style>
  </defs>
  <g id="Layer_1-2" data-name="Layer 1">
    <g>
      <rect class="cls-4" width="430.5" height="318" rx="6" ry="6"/>
      <g>
        <path class="cls-2" d="M99.48,207.23c26.64,0,48.23-21.59,48.23-48.23s-21.59-48.23-48.23-48.23-48.23,21.59-48.23,48.23,21.59,48.23,48.23,48.23"/>
        <path class="cls-3" d="M215.25,207.23c26.64,0,48.23-21.59,48.23-48.23s-21.59-48.23-48.23-48.23-48.23,21.59-48.23,48.23,21.59,48.23,48.23,48.23"/>
        <path class="cls-1" d="M331.02,207.23c26.64,0,48.23-21.59,48.23-48.23s-21.59-48.23-48.23-48.23-48.23,21.59-48.23,48.23,21.59,48.23,48.23,48.23"/>
      </g>
    </g>
  </g>
</svg>