<?xml version="1.0" encoding="UTF-8"?>
<svg id="Layer_1" data-name="Layer 1" xmlns="http://www.w3.org/2000/svg" viewBox="-8 -8 128.58 122.08">
  <defs>
    <style>
      .cls-1 {
        fill: #fff;
      }
    </style>
  </defs>
  <path class="cls-1" d="M27.49,1.87c13.77,0,24.08,9.24,24.08,23.02s-10.31,22.89-24.08,22.89S3.34,37.97,3.34,24.89,13.66,1.87,27.49,1.87"/>
  <path class="cls-1" d="M16.23,87.68c.82,0,1.24.34,1.37,1.03.69,3.5,3.64,5.7,10.17,5.7s9.55-2.47,9.55-5.43c0-1.92-1.37-3.64-5.5-3.99l-10.72-.89c-8.38-.69-12.85-4.54-12.85-10.72,0-7.14,6.25-13.74,18.41-13.74s18.07,5.84,18.07,12.44c0,.62-.48,1.17-1.31,1.17h-6.8c-.69,0-1.1-.21-1.24-1.03-.41-2.4-2.75-4.74-8.79-4.74s-9,2.34-9,5.36c0,1.85,1.24,3.23,5.02,3.5l10.65.89c9.62.82,13.4,5.63,13.4,11.34,0,6.46-5.57,13.67-18.9,13.67-12.57,0-19.51-5.98-19.51-12.78v-.55c0-.69.55-1.24,1.31-1.24h6.67Z"/>
  <path class="cls-1" d="M106.98,60.33c.41,0,.82.41.82.83v39.58c0,.41-.41.82-.82.82h-7.69c-.41,0-.82-.41-.82-.82v-25.22h-.21s-.83,2.06-2.54,4.4l-12.16,17.11-12.23-17.11c-1.65-2.34-2.47-4.4-2.47-4.4h-.21v25.22c0,.41-.41.82-.82.82h-7.7c-.41,0-.82-.41-.82-.82v-39.58c0-.41.41-.83.82-.83h6.05c.48,0,.96.21,1.31.69l16.01,22.4h.14l16.01-22.4c.34-.48.82-.69,1.31-.69h6.05Z"/>
  <path class="cls-1" d="M84.65,3.13l24.13,42.76c.24.42-.07.95-.55.95h-48.16c-.48,0-.79-.52-.55-.95L83.54,3.13c.24-.43.86-.43,1.11,0"/>
</svg>